<svg width="30" height="30" viewBox="0 0 30 30" fill="none" xmlns="http://www.w3.org/2000/svg">
<mask id="mask0_148_1837" style="mask-type:alpha" maskUnits="userSpaceOnUse" x="0" y="0" width="31" height="30">
<rect x="0.000488281" width="30" height="30" fill="#D9D9D9"/>
</mask>
<g mask="url(#mask0_148_1837)">
<path d="M7.50049 25C6.81299 25 6.22465 24.7554 5.73549 24.2663C5.24549 23.7763 5.00049 23.1875 5.00049 22.5C5.00049 21.8125 5.24549 21.2237 5.73549 20.7337C6.22465 20.2446 6.81299 20 7.50049 20C8.18799 20 8.77632 20.2446 9.26549 20.7337C9.75549 21.2237 10.0005 21.8125 10.0005 22.5C10.0005 23.1875 9.75549 23.7763 9.26549 24.2663C8.77632 24.7554 8.18799 25 7.50049 25ZM15.0005 25C14.313 25 13.7247 24.7554 13.2355 24.2663C12.7455 23.7763 12.5005 23.1875 12.5005 22.5C12.5005 21.8125 12.7455 21.2237 13.2355 20.7337C13.7247 20.2446 14.313 20 15.0005 20C15.688 20 16.2767 20.2446 16.7667 20.7337C17.2559 21.2237 17.5005 21.8125 17.5005 22.5C17.5005 23.1875 17.2559 23.7763 16.7667 24.2663C16.2767 24.7554 15.688 25 15.0005 25ZM22.5005 25C21.813 25 21.2242 24.7554 20.7342 24.2663C20.2451 23.7763 20.0005 23.1875 20.0005 22.5C20.0005 21.8125 20.2451 21.2237 20.7342 20.7337C21.2242 20.2446 21.813 20 22.5005 20C23.188 20 23.7767 20.2446 24.2667 20.7337C24.7559 21.2237 25.0005 21.8125 25.0005 22.5C25.0005 23.1875 24.7559 23.7763 24.2667 24.2663C23.7767 24.7554 23.188 25 22.5005 25ZM7.50049 17.5C6.81299 17.5 6.22465 17.255 5.73549 16.765C5.24549 16.2758 5.00049 15.6875 5.00049 15C5.00049 14.3125 5.24549 13.7237 5.73549 13.2337C6.22465 12.7446 6.81299 12.5 7.50049 12.5C8.18799 12.5 8.77632 12.7446 9.26549 13.2337C9.75549 13.7237 10.0005 14.3125 10.0005 15C10.0005 15.6875 9.75549 16.2758 9.26549 16.765C8.77632 17.255 8.18799 17.5 7.50049 17.5ZM15.0005 17.5C14.313 17.5 13.7247 17.255 13.2355 16.765C12.7455 16.2758 12.5005 15.6875 12.5005 15C12.5005 14.3125 12.7455 13.7237 13.2355 13.2337C13.7247 12.7446 14.313 12.5 15.0005 12.5C15.688 12.5 16.2767 12.7446 16.7667 13.2337C17.2559 13.7237 17.5005 14.3125 17.5005 15C17.5005 15.6875 17.2559 16.2758 16.7667 16.765C16.2767 17.255 15.688 17.5 15.0005 17.5ZM22.5005 17.5C21.813 17.5 21.2242 17.255 20.7342 16.765C20.2451 16.2758 20.0005 15.6875 20.0005 15C20.0005 14.3125 20.2451 13.7237 20.7342 13.2337C21.2242 12.7446 21.813 12.5 22.5005 12.5C23.188 12.5 23.7767 12.7446 24.2667 13.2337C24.7559 13.7237 25.0005 14.3125 25.0005 15C25.0005 15.6875 24.7559 16.2758 24.2667 16.765C23.7767 17.255 23.188 17.5 22.5005 17.5ZM7.50049 10C6.81299 10 6.22465 9.755 5.73549 9.265C5.24549 8.77583 5.00049 8.1875 5.00049 7.5C5.00049 6.8125 5.24549 6.22417 5.73549 5.735C6.22465 5.245 6.81299 5 7.50049 5C8.18799 5 8.77632 5.245 9.26549 5.735C9.75549 6.22417 10.0005 6.8125 10.0005 7.5C10.0005 8.1875 9.75549 8.77583 9.26549 9.265C8.77632 9.755 8.18799 10 7.50049 10ZM15.0005 10C14.313 10 13.7247 9.755 13.2355 9.265C12.7455 8.77583 12.5005 8.1875 12.5005 7.5C12.5005 6.8125 12.7455 6.22417 13.2355 5.735C13.7247 5.245 14.313 5 15.0005 5C15.688 5 16.2767 5.245 16.7667 5.735C17.2559 6.22417 17.5005 6.8125 17.5005 7.5C17.5005 8.1875 17.2559 8.77583 16.7667 9.265C16.2767 9.755 15.688 10 15.0005 10ZM22.5005 10C21.813 10 21.2242 9.755 20.7342 9.265C20.2451 8.77583 20.0005 8.1875 20.0005 7.5C20.0005 6.8125 20.2451 6.22417 20.7342 5.735C21.2242 5.245 21.813 5 22.5005 5C23.188 5 23.7767 5.245 24.2667 5.735C24.7559 6.22417 25.0005 6.8125 25.0005 7.5C25.0005 8.1875 24.7559 8.77583 24.2667 9.265C23.7767 9.755 23.188 10 22.5005 10Z" fill="white"/>
</g>
</svg>
