<svg width="30" height="30" viewBox="0 0 30 30" fill="none" xmlns="http://www.w3.org/2000/svg">
<mask id="mask0_149_1785" style="mask-type:alpha" maskUnits="userSpaceOnUse" x="0" y="0" width="30" height="30">
<rect width="30" height="30" fill="#D9D9D9"/>
</mask>
<g mask="url(#mask0_149_1785)">
<path d="M5.0625 13.75H8.625C8.5 12.9583 8.26042 12.2188 7.90625 11.5312C7.55208 10.8438 7.10417 10.2292 6.5625 9.6875C6.1875 10.2917 5.87 10.9321 5.61 11.6087C5.34917 12.2862 5.16667 13 5.0625 13.75ZM21.375 13.75H24.9375C24.8333 13 24.6513 12.2862 24.3913 11.6087C24.1304 10.9321 23.8125 10.2917 23.4375 9.6875C22.8958 10.2292 22.4479 10.8438 22.0938 11.5312C21.7396 12.2188 21.5 12.9583 21.375 13.75ZM6.5625 20.3125C7.10417 19.7708 7.55208 19.1562 7.90625 18.4688C8.26042 17.7812 8.5 17.0417 8.625 16.25H5.0625C5.16667 17 5.34917 17.7133 5.61 18.39C5.87 19.0675 6.1875 19.7083 6.5625 20.3125ZM23.4375 20.3125C23.8125 19.7083 24.1304 19.0675 24.3913 18.39C24.6513 17.7133 24.8333 17 24.9375 16.25H21.375C21.5 17.0417 21.7396 17.7812 22.0938 18.4688C22.4479 19.1562 22.8958 19.7708 23.4375 20.3125ZM11.1875 13.75H13.75V5.0625C12.6458 5.22917 11.62 5.53625 10.6725 5.98375C9.72417 6.43208 8.875 7.02083 8.125 7.75C8.9375 8.54167 9.60958 9.4425 10.1412 10.4525C10.6721 11.4633 11.0208 12.5625 11.1875 13.75ZM16.25 13.75H18.8125C18.9792 12.5625 19.3283 11.4633 19.86 10.4525C20.3908 9.4425 21.0625 8.54167 21.875 7.75C21.125 7.02083 20.2763 6.43208 19.3288 5.98375C18.3804 5.53625 17.3542 5.22917 16.25 5.0625V13.75ZM13.75 24.9375V16.25H11.1875C11.0208 17.4375 10.6721 18.5362 10.1412 19.5462C9.60958 20.5571 8.9375 21.4583 8.125 22.25C8.875 22.9792 9.72417 23.5675 10.6725 24.015C11.62 24.4633 12.6458 24.7708 13.75 24.9375ZM16.25 24.9375C17.3542 24.7708 18.3804 24.4633 19.3288 24.015C20.2763 23.5675 21.125 22.9792 21.875 22.25C21.0625 21.4583 20.3908 20.5571 19.86 19.5462C19.3283 18.5362 18.9792 17.4375 18.8125 16.25H16.25V24.9375ZM15 27.5C13.2708 27.5 11.6458 27.1717 10.125 26.515C8.60417 25.8592 7.28125 24.9688 6.15625 23.8438C5.03125 22.7188 4.14083 21.3958 3.485 19.875C2.82833 18.3542 2.5 16.7292 2.5 15C2.5 13.2708 2.82833 11.6458 3.485 10.125C4.14083 8.60417 5.03125 7.28125 6.15625 6.15625C7.28125 5.03125 8.60417 4.14042 10.125 3.48375C11.6458 2.82792 13.2708 2.5 15 2.5C16.7292 2.5 18.3542 2.82792 19.875 3.48375C21.3958 4.14042 22.7188 5.03125 23.8438 6.15625C24.9688 7.28125 25.8592 8.60417 26.515 10.125C27.1717 11.6458 27.5 13.2708 27.5 15C27.5 16.7292 27.1717 18.3542 26.515 19.875C25.8592 21.3958 24.9688 22.7188 23.8438 23.8438C22.7188 24.9688 21.3958 25.8592 19.875 26.515C18.3542 27.1717 16.7292 27.5 15 27.5Z" fill="current"/>
</g>
</svg>
