<svg width="30" height="30" viewBox="0 0 30 30" fill="none" xmlns="http://www.w3.org/2000/svg">
<mask id="mask0_149_1836" style="mask-type:alpha" maskUnits="userSpaceOnUse" x="0" y="0" width="30" height="30">
<rect width="30" height="30" fill="#D9D9D9"/>
</mask>
<g mask="url(#mask0_149_1836)">
<path d="M6.25 23.75H8L18.7812 12.9688L17.0312 11.2188L6.25 22V23.75ZM24.125 11.1562L18.8125 5.90625L20.5625 4.15625C21.0417 3.67708 21.6304 3.4375 22.3288 3.4375C23.0263 3.4375 23.6146 3.67708 24.0938 4.15625L25.8438 5.90625C26.3229 6.38542 26.5729 6.96375 26.5938 7.64125C26.6146 8.31792 26.3854 8.89583 25.9062 9.375L24.125 11.1562ZM22.3125 13L9.0625 26.25H3.75V20.9375L17 7.6875L22.3125 13Z" fill="white"/>
</g>
</svg>
