<svg width="45" height="45" viewBox="0 0 45 45" fill="none" xmlns="http://www.w3.org/2000/svg">
<mask id="mask0_148_2016" style="mask-type:alpha" maskUnits="userSpaceOnUse" x="0" y="0" width="45" height="45">
<rect x="0.5" y="0.5" width="44" height="44" fill="#D9D9D9" stroke="black"/>
</mask>
<g mask="url(#mask0_148_2016)">
<path d="M19.3271 38.875L21.1206 26.3207L21.2021 25.75H20.6256H14.0631C13.8667 25.75 13.752 25.7228 13.6928 25.6972C13.6656 25.6855 13.6553 25.6764 13.6533 25.6746C13.6531 25.6744 13.653 25.6742 13.6529 25.6741C13.6436 25.6496 13.6114 25.4935 13.841 25.0918L13.8411 25.0916L24.6659 6.125H25.6741L23.8806 18.6793L23.7991 19.25H24.3756H30.9381C31.1346 19.25 31.2488 19.2772 31.3076 19.3026C31.3344 19.3142 31.3444 19.3232 31.3459 19.3246L31.3467 19.3264C31.3549 19.3451 31.3945 19.4982 31.1602 19.9082L31.1601 19.9084L20.3352 38.875H19.3271Z" fill="current" stroke="black"/>
</g>
</svg>
