<svg width="24" height="24" viewBox="0 0 24 24" fill="none" xmlns="http://www.w3.org/2000/svg">
<mask id="mask0_350_1813" style="mask-type:alpha" maskUnits="userSpaceOnUse" x="0" y="0" width="24" height="24">
<rect width="24" height="24" fill="#D9D9D9"/>
</mask>
<g mask="url(#mask0_350_1813)">
<path d="M10 22V15H8V9C8 8.45 8.196 7.979 8.588 7.587C8.97933 7.19567 9.45 7 10 7H14C14.55 7 15.021 7.19567 15.413 7.587C15.8043 7.979 16 8.45 16 9V15H14V22H10ZM12 6C11.45 6 10.9793 5.804 10.588 5.412C10.196 5.02067 10 4.55 10 4C10 3.45 10.196 2.979 10.588 2.587C10.9793 2.19567 11.45 2 12 2C12.55 2 13.021 2.19567 13.413 2.587C13.8043 2.979 14 3.45 14 4C14 4.55 13.8043 5.02067 13.413 5.412C13.021 5.804 12.55 6 12 6Z" fill="#1C1B1F"/>
</g>
</svg>
