<svg width="24" height="24" viewBox="0 0 24 24" fill="none" xmlns="http://www.w3.org/2000/svg">
<mask id="mask0_157_1713" style="mask-type:alpha" maskUnits="userSpaceOnUse" x="0" y="0" width="24" height="24">
<rect width="24" height="24" fill="#D9D9D9"/>
</mask>
<g mask="url(#mask0_157_1713)">
<path d="M12 23L9 20H5C4.45 20 3.979 19.8043 3.587 19.413C3.19567 19.021 3 18.55 3 18V4C3 3.45 3.19567 2.979 3.587 2.587C3.979 2.19567 4.45 2 5 2H19C19.55 2 20.021 2.19567 20.413 2.587C20.8043 2.979 21 3.45 21 4V18C21 18.55 20.8043 19.021 20.413 19.413C20.021 19.8043 19.55 20 19 20H15L12 23ZM5 18H9.8L12 20.2L14.2 18H19V4H5V18ZM11.95 16.8C12.3 16.8 12.596 16.6793 12.838 16.438C13.0793 16.196 13.2 15.9 13.2 15.55C13.2 15.2 13.0793 14.904 12.838 14.662C12.596 14.4207 12.3 14.3 11.95 14.3C11.6 14.3 11.304 14.4207 11.062 14.662C10.8207 14.904 10.7 15.2 10.7 15.55C10.7 15.9 10.8207 16.196 11.062 16.438C11.304 16.6793 11.6 16.8 11.95 16.8ZM12.9 12.95C12.9 12.35 12.9667 11.9083 13.1 11.625C13.2333 11.3417 13.5167 10.9833 13.95 10.55C14.5333 9.96667 14.946 9.479 15.188 9.087C15.4293 8.69567 15.55 8.25 15.55 7.75C15.55 6.86667 15.25 6.154 14.65 5.612C14.05 5.07067 13.2417 4.8 12.225 4.8C11.3083 4.8 10.5293 5.025 9.888 5.475C9.246 5.925 8.8 6.55 8.55 7.35L10.2 8C10.3167 7.55 10.55 7.18733 10.9 6.912C11.25 6.63733 11.6583 6.5 12.125 6.5C12.575 6.5 12.95 6.62067 13.25 6.862C13.55 7.104 13.7 7.425 13.7 7.825C13.7 8.10833 13.6083 8.40833 13.425 8.725C13.2417 9.04167 12.9333 9.39167 12.5 9.775C11.95 10.2583 11.571 10.7207 11.363 11.162C11.1543 11.604 11.05 12.2 11.05 12.95H12.9Z" fill="#7ACE82"/>
</g>
</svg>
