<svg width="30" height="30" viewBox="0 0 30 30" fill="none" xmlns="http://www.w3.org/2000/svg">
<mask id="mask0_148_1914" style="mask-type:alpha" maskUnits="userSpaceOnUse" x="0" y="0" width="30" height="30">
<rect width="30" height="30" fill="#D9D9D9"/>
</mask>
<g mask="url(#mask0_148_1914)">
<path d="M16.25 28.75V21.25L13.625 18.75L12.375 24.25L3.75 22.5L4.25 20L10.25 21.25L12.25 11.125L10 12V16.25H7.5V10.375L12.4375 8.25C13.1667 7.9375 13.7033 7.73417 14.0475 7.64C14.3908 7.54667 14.7083 7.5 15 7.5C15.4375 7.5 15.8438 7.61458 16.2188 7.84375C16.5938 8.07292 16.8958 8.375 17.125 8.75L18.375 10.75C18.9167 11.625 19.6508 12.3438 20.5775 12.9062C21.505 13.4688 22.5625 13.75 23.75 13.75V16.25C22.375 16.25 21.0888 15.9633 19.8913 15.39C18.6929 14.8175 17.6875 14.0625 16.875 13.125L16.125 16.875L18.75 19.375V28.75H16.25ZM16.875 6.875C16.1875 6.875 15.5992 6.63 15.11 6.14C14.62 5.65083 14.375 5.0625 14.375 4.375C14.375 3.6875 14.62 3.09875 15.11 2.60875C15.5992 2.11958 16.1875 1.875 16.875 1.875C17.5625 1.875 18.1512 2.11958 18.6413 2.60875C19.1304 3.09875 19.375 3.6875 19.375 4.375C19.375 5.0625 19.1304 5.65083 18.6413 6.14C18.1512 6.63 17.5625 6.875 16.875 6.875Z" fill="current"/>
</g>
</svg>
