<svg width="30" height="30" viewBox="0 0 30 30" fill="none" xmlns="http://www.w3.org/2000/svg">
<mask id="mask0_148_1899" style="mask-type:alpha" maskUnits="userSpaceOnUse" x="0" y="0" width="30" height="30">
<rect width="30" height="30" fill="#D9D9D9"/>
</mask>
<g mask="url(#mask0_148_1899)">
<path d="M2.5 26.25V23.75C3.29167 23.75 3.88542 23.5417 4.28125 23.125C4.67708 22.7083 5.45833 22.5 6.625 22.5C7.79167 22.5 8.59375 22.7083 9.03125 23.125C9.46875 23.5417 10.0625 23.75 10.8125 23.75C11.5625 23.75 12.1562 23.5417 12.5938 23.125C13.0312 22.7083 13.8333 22.5 15 22.5C16.1667 22.5 16.9688 22.7083 17.4062 23.125C17.8438 23.5417 18.4375 23.75 19.1875 23.75C19.9375 23.75 20.5312 23.5417 20.9688 23.125C21.4062 22.7083 22.2083 22.5 23.375 22.5C24.5417 22.5 25.3229 22.7083 25.7188 23.125C26.1146 23.5417 26.7083 23.75 27.5 23.75V26.25C26.2708 26.25 25.4633 26.0417 25.0775 25.625C24.6925 25.2083 24.125 25 23.375 25C22.625 25 22.0312 25.2083 21.5938 25.625C21.1562 26.0417 20.3542 26.25 19.1875 26.25C18.0208 26.25 17.2188 26.0417 16.7812 25.625C16.3438 25.2083 15.75 25 15 25C14.25 25 13.6562 25.2083 13.2188 25.625C12.7812 26.0417 11.9792 26.25 10.8125 26.25C9.64583 26.25 8.84375 26.0417 8.40625 25.625C7.96875 25.2083 7.375 25 6.625 25C5.875 25 5.3075 25.2083 4.9225 25.625C4.53667 26.0417 3.72917 26.25 2.5 26.25ZM2.5 20.625V18.125C3.29167 18.125 3.88542 17.9167 4.28125 17.5C4.67708 17.0833 5.45833 16.875 6.625 16.875C7.79167 16.875 8.59917 17.0833 9.0475 17.5C9.495 17.9167 10.0833 18.125 10.8125 18.125C11.5625 18.125 12.1562 17.9167 12.5938 17.5C13.0312 17.0833 13.8333 16.875 15 16.875C16.1667 16.875 16.9688 17.0833 17.4062 17.5C17.8438 17.9167 18.4375 18.125 19.1875 18.125C19.9375 18.125 20.5312 17.9167 20.9688 17.5C21.4062 17.0833 22.2083 16.875 23.375 16.875C24.5417 16.875 25.3229 17.0833 25.7188 17.5C26.1146 17.9167 26.7083 18.125 27.5 18.125V20.625C26.2708 20.625 25.4633 20.4167 25.0775 20C24.6925 19.5833 24.125 19.375 23.375 19.375C22.625 19.375 22.0467 19.5833 21.64 20C21.2342 20.4167 20.4167 20.625 19.1875 20.625C18 20.625 17.1929 20.4167 16.7663 20C16.3387 19.5833 15.75 19.375 15 19.375C14.2083 19.375 13.62 19.5833 13.235 20C12.8492 20.4167 12.0417 20.625 10.8125 20.625C9.58333 20.625 8.76583 20.4167 8.36 20C7.95333 19.5833 7.375 19.375 6.625 19.375C5.875 19.375 5.3075 19.5833 4.9225 20C4.53667 20.4167 3.72917 20.625 2.5 20.625ZM8.625 14.25L12.7812 10.0938L11.5312 8.84375C10.8438 8.15625 10.1146 7.65625 9.34375 7.34375C8.57292 7.03125 7.625 6.875 6.5 6.875V3.75C8.0625 3.75 9.35417 3.92167 10.375 4.265C11.3958 4.60917 12.3958 5.27083 13.375 6.25L21.375 14.25C21.0208 14.4792 20.6771 14.6613 20.3438 14.7962C20.0104 14.9321 19.625 15 19.1875 15C18.4375 15 17.8438 14.7917 17.4062 14.375C16.9688 13.9583 16.1667 13.75 15 13.75C13.8333 13.75 13.0312 13.9583 12.5938 14.375C12.1562 14.7917 11.5625 15 10.8125 15C10.375 15 9.98958 14.9321 9.65625 14.7962C9.32292 14.6613 8.97917 14.4792 8.625 14.25ZM20.875 3.75C21.75 3.75 22.4896 4.05708 23.0938 4.67125C23.6979 5.28625 24 6.02083 24 6.875C24 7.75 23.6979 8.48958 23.0938 9.09375C22.4896 9.69792 21.75 10 20.875 10C20 10 19.2604 9.69792 18.6562 9.09375C18.0521 8.48958 17.75 7.75 17.75 6.875C17.75 6.02083 18.0521 5.28625 18.6562 4.67125C19.2604 4.05708 20 3.75 20.875 3.75Z" fill="current"/>
</g>
</svg>
