<svg width="30" height="30" viewBox="0 0 30 30" fill="none" xmlns="http://www.w3.org/2000/svg">
<mask id="mask0_148_1904" style="mask-type:alpha" maskUnits="userSpaceOnUse" x="0" y="0" width="31" height="30">
<rect x="0.000488281" width="30" height="30" fill="white"/>
</mask>
<g mask="url(#mask0_148_1904)">
<path d="M4.28101 25.0022L2.49976 23.2522L7.62476 18.1272C8.27059 17.4813 8.71309 16.6738 8.95226 15.7047C9.19226 14.7363 9.31226 13.2522 9.31226 11.2522C9.31226 10.0438 9.58309 8.85633 10.1248 7.68966C10.6664 6.52299 11.4373 5.43966 12.4373 4.43966C14.3331 2.54383 16.4268 1.47091 18.7185 1.22091C21.0102 0.97091 22.8956 1.60633 24.3748 3.12716C25.8748 4.62716 26.4998 6.52299 26.2498 8.81466C25.9998 11.1063 24.9373 13.1897 23.0623 15.0647C22.0623 16.0647 20.9789 16.8355 19.8123 17.3772C18.6456 17.9188 17.4581 18.1897 16.2498 18.1897C14.2289 18.1897 12.7498 18.3042 11.8123 18.5334C10.8748 18.7626 10.0727 19.2105 9.40601 19.8772L4.28101 25.0022ZM12.8748 14.5647C13.8539 15.523 15.1768 15.8772 16.8435 15.6272C18.5102 15.3772 19.9998 14.5959 21.3123 13.2834C22.6456 11.9501 23.4427 10.4551 23.7035 8.79841C23.9635 7.14258 23.6039 5.84591 22.6248 4.90841C21.6248 3.90841 20.3177 3.53341 18.7035 3.78341C17.0885 4.03341 15.6039 4.82508 14.2498 6.15841C12.9373 7.47091 12.1406 8.95549 11.8598 10.6122C11.5781 12.268 11.9164 13.5855 12.8748 14.5647ZM22.4998 28.7522C21.1248 28.7522 19.9477 28.2626 18.9685 27.2834C17.9893 26.3042 17.4998 25.1272 17.4998 23.7522C17.4998 22.3772 17.9893 21.2001 18.9685 20.2209C19.9477 19.2417 21.1248 18.7522 22.4998 18.7522C23.8748 18.7522 25.0518 19.2417 26.031 20.2209C27.0102 21.2001 27.4998 22.3772 27.4998 23.7522C27.4998 25.1272 27.0102 26.3042 26.031 27.2834C25.0518 28.2626 23.8748 28.7522 22.4998 28.7522ZM22.4998 26.2522C23.1873 26.2522 23.776 26.0076 24.266 25.5184C24.7552 25.0284 24.9998 24.4397 24.9998 23.7522C24.9998 23.0647 24.7552 22.4759 24.266 21.9859C23.776 21.4967 23.1873 21.2522 22.4998 21.2522C21.8123 21.2522 21.2235 21.4967 20.7335 21.9859C20.2443 22.4759 19.9998 23.0647 19.9998 23.7522C19.9998 24.4397 20.2443 25.0284 20.7335 25.5184C21.2235 26.0076 21.8123 26.2522 22.4998 26.2522Z" fill="white"/>
</g>
</svg>
