<svg width="25" height="26" viewBox="0 0 25 26" fill="none" xmlns="http://www.w3.org/2000/svg">
<mask id="mask0_350_1758" style="mask-type:alpha" maskUnits="userSpaceOnUse" x="0" y="0" width="25" height="26">
<rect width="25" height="26" fill="#D9D9D9"/>
</mask>
<g mask="url(#mask0_350_1758)">
<path d="M1.0415 21.6667V17.3333C1.0415 16.7194 1.24567 16.2049 1.654 15.7896C2.06164 15.3743 2.55192 15.1667 3.12484 15.1667H6.5363C6.88352 15.1667 7.21338 15.2569 7.52588 15.4375C7.83838 15.6181 8.09011 15.8618 8.28109 16.1688C8.78456 16.8729 9.40539 17.4236 10.1436 17.8208C10.8811 18.2181 11.6665 18.4167 12.4998 18.4167C13.3505 18.4167 14.145 18.2181 14.8832 17.8208C15.6207 17.4236 16.2325 16.8729 16.7186 16.1688C16.9443 15.8618 17.2089 15.6181 17.5123 15.4375C17.8165 15.2569 18.1335 15.1667 18.4634 15.1667H21.8748C22.4651 15.1667 22.9599 15.3743 23.3592 15.7896C23.7585 16.2049 23.9582 16.7194 23.9582 17.3333V21.6667H16.6665V19.2021C16.0589 19.6535 15.4037 19.9965 14.7009 20.2313C13.9974 20.466 13.2637 20.5833 12.4998 20.5833C11.7533 20.5833 11.0241 20.4616 10.3123 20.2183C9.60053 19.9741 8.94081 19.6264 8.33317 19.175V21.6667H1.0415ZM12.4998 17.3333C11.8401 17.3333 11.2151 17.1752 10.6248 16.8588C10.0346 16.5432 9.53977 16.1056 9.14046 15.5458C8.84532 15.0944 8.47657 14.738 8.03421 14.4766C7.59116 14.2144 7.10921 14.0833 6.58838 14.0833C6.97032 13.4153 7.77761 12.887 9.01025 12.4984C10.2429 12.1106 11.4061 11.9167 12.4998 11.9167C13.5936 11.9167 14.7568 12.1106 15.9894 12.4984C17.2221 12.887 18.0293 13.4153 18.4113 14.0833C17.9078 14.0833 17.4304 14.2144 16.979 14.4766C16.5276 14.738 16.1544 15.0944 15.8592 15.5458C15.4773 16.1236 14.9912 16.566 14.4009 16.8729C13.8106 17.1799 13.1769 17.3333 12.4998 17.3333ZM4.1665 14.0833C3.29845 14.0833 2.5606 13.7674 1.95296 13.1354C1.34532 12.5035 1.0415 11.7361 1.0415 10.8333C1.0415 9.9125 1.34532 9.14045 1.95296 8.51717C2.5606 7.89461 3.29845 7.58333 4.1665 7.58333C5.05192 7.58333 5.79428 7.89461 6.39359 8.51717C6.9922 9.14045 7.2915 9.9125 7.2915 10.8333C7.2915 11.7361 6.9922 12.5035 6.39359 13.1354C5.79428 13.7674 5.05192 14.0833 4.1665 14.0833ZM20.8332 14.0833C19.9651 14.0833 19.2273 13.7674 18.6196 13.1354C18.012 12.5035 17.7082 11.7361 17.7082 10.8333C17.7082 9.9125 18.012 9.14045 18.6196 8.51717C19.2273 7.89461 19.9651 7.58333 20.8332 7.58333C21.7186 7.58333 22.4609 7.89461 23.0603 8.51717C23.6589 9.14045 23.9582 9.9125 23.9582 10.8333C23.9582 11.7361 23.6589 12.5035 23.0603 13.1354C22.4609 13.7674 21.7186 14.0833 20.8332 14.0833ZM12.4998 10.8333C11.6318 10.8333 10.8939 10.5174 10.2863 9.88542C9.67866 9.25347 9.37484 8.48611 9.37484 7.58333C9.37484 6.6625 9.67866 5.89045 10.2863 5.26717C10.8939 4.64461 11.6318 4.33333 12.4998 4.33333C13.3853 4.33333 14.1273 4.64461 14.7259 5.26717C15.3252 5.89045 15.6248 6.6625 15.6248 7.58333C15.6248 8.48611 15.3252 9.25347 14.7259 9.88542C14.1273 10.5174 13.3853 10.8333 12.4998 10.8333Z" fill="#1C1B1F"/>
</g>
</svg>
