<svg width="20" height="20" viewBox="0 0 20 20" fill="none" xmlns="http://www.w3.org/2000/svg">
<mask id="mask0_151_2185" style="mask-type:alpha" maskUnits="userSpaceOnUse" x="0" y="0" width="20" height="20">
<rect width="20" height="20" fill="#D9D9D9"/>
</mask>
<g mask="url(#mask0_151_2185)">
<path d="M1.66675 20.0001V16.6668H18.3334V20.0001H1.66675ZM3.33341 15.0001V11.8751L10.8751 4.33344L14.0001 7.45844L6.45841 15.0001H3.33341ZM5.00008 13.3334H5.75008L11.6667 7.45844L10.8751 6.66678L5.00008 12.5834V13.3334ZM14.9376 6.54178L11.8126 3.41678L13.3126 1.91678C13.4654 1.75011 13.6598 1.67011 13.8959 1.67678C14.132 1.684 14.3265 1.764 14.4792 1.91678L16.4376 3.87511C16.5904 4.02789 16.6667 4.219 16.6667 4.44844C16.6667 4.67733 16.5904 4.87511 16.4376 5.04178L14.9376 6.54178Z" fill="#1C1B1F"/>
</g>
</svg>
