<svg width="30" height="30" viewBox="0 0 30 30" fill="none" xmlns="http://www.w3.org/2000/svg">
<mask id="mask0_148_1920" style="mask-type:alpha" maskUnits="userSpaceOnUse" x="0" y="0" width="30" height="30">
<rect width="30" height="30" fill="#D9D9D9"/>
</mask>
<g mask="url(#mask0_148_1920)">
<path d="M16.3678 27.1L14.6001 25.3323L19.0824 20.85L8.3501 10.1177L3.86777 14.6L2.1001 12.8323L3.86777 11.0015L2.1001 9.23381L4.75161 6.5823L2.98394 4.75149L4.75161 2.98381L6.58242 4.75149L9.23394 2.09998L11.0016 3.86765L12.8324 2.09998L14.6001 3.86765L10.1178 8.34998L20.8501 19.0823L25.3324 14.6L27.1001 16.3677L25.3324 18.1985L27.1001 19.9661L24.4486 22.6177L26.2163 24.4485L24.4486 26.2161L22.6178 24.4485L19.9663 27.1L18.1986 25.3323L16.3678 27.1Z" fill="white"/>
</g>
</svg>
