<svg width="24" height="24" viewBox="0 0 24 24" fill="none" xmlns="http://www.w3.org/2000/svg">
<mask id="mask0_350_1810" style="mask-type:alpha" maskUnits="userSpaceOnUse" x="0" y="0" width="24" height="24">
<rect width="24" height="24" fill="#D9D9D9"/>
</mask>
<g mask="url(#mask0_350_1810)">
<path d="M10 22V16H7L10.05 8.3C10.2167 7.9 10.475 7.58333 10.825 7.35C11.175 7.11667 11.5667 7 12 7C12.4333 7 12.825 7.11667 13.175 7.35C13.525 7.58333 13.7833 7.9 13.95 8.3L17 16H14V22H10ZM12 6C11.45 6 10.9793 5.804 10.588 5.412C10.196 5.02067 10 4.55 10 4C10 3.45 10.196 2.979 10.588 2.587C10.9793 2.19567 11.45 2 12 2C12.55 2 13.021 2.19567 13.413 2.587C13.8043 2.979 14 3.45 14 4C14 4.55 13.8043 5.02067 13.413 5.412C13.021 5.804 12.55 6 12 6Z" fill="#1C1B1F"/>
</g>
</svg>
