<svg width="30" height="30" viewBox="0 0 30 30" fill="none" xmlns="http://www.w3.org/2000/svg">
<mask id="mask0_148_1909" style="mask-type:alpha" maskUnits="userSpaceOnUse" x="-1" y="0" width="31" height="30">
<rect x="-0.000488281" width="30" height="30" fill="#D9D9D9"/>
</mask>
<g mask="url(#mask0_148_1909)">
<path d="M8.49951 25C7.87451 25 7.34326 24.7812 6.90576 24.3438C6.46826 23.9062 6.24951 23.375 6.24951 22.75C6.24951 22.3125 6.37451 21.9008 6.62451 21.515C6.87451 21.13 7.20784 20.8542 7.62451 20.6875L12.4995 18.75V15.9375C11.3745 17.25 10.0674 18.255 8.57826 18.9525C7.08826 19.6508 5.47868 20 3.74951 20V17.5C5.16618 17.5 6.45284 17.2083 7.60951 16.625C8.76534 16.0417 9.81201 15.2083 10.7495 14.125L12.437 12.125C12.687 11.8333 12.9787 11.6146 13.312 11.4688C13.6453 11.3229 13.9995 11.25 14.3745 11.25H15.6245C15.9995 11.25 16.3537 11.3229 16.687 11.4688C17.0203 11.6146 17.312 11.8333 17.562 12.125L19.2495 14.125C20.187 15.2083 21.2341 16.0417 22.3908 16.625C23.5466 17.2083 24.8328 17.5 26.2495 17.5V20C24.5203 20 22.9112 19.6508 21.422 18.9525C19.932 18.255 18.6245 17.25 17.4995 15.9375V18.75L22.3745 20.6875C22.7912 20.8542 23.1245 21.13 23.3745 21.515C23.6245 21.9008 23.7495 22.3125 23.7495 22.75C23.7495 23.375 23.5308 23.9062 23.0933 24.3438C22.6558 24.7812 22.1245 25 21.4995 25H12.4995V24.375C12.4995 23.8333 12.6766 23.3854 13.0308 23.0312C13.3849 22.6771 13.8328 22.5 14.3745 22.5H18.1245C18.312 22.5 18.4633 22.4429 18.5783 22.3288C18.6924 22.2138 18.7495 22.0625 18.7495 21.875C18.7495 21.6875 18.6924 21.5362 18.5783 21.4212C18.4633 21.3071 18.312 21.25 18.1245 21.25H14.3745C13.4995 21.25 12.7599 21.5521 12.1558 22.1562C11.5516 22.7604 11.2495 23.5 11.2495 24.375V25H8.49951ZM14.9995 10C14.312 10 13.7237 9.755 13.2345 9.265C12.7445 8.77583 12.4995 8.1875 12.4995 7.5C12.4995 6.8125 12.7445 6.22417 13.2345 5.735C13.7237 5.245 14.312 5 14.9995 5C15.687 5 16.2758 5.245 16.7658 5.735C17.2549 6.22417 17.4995 6.8125 17.4995 7.5C17.4995 8.1875 17.2549 8.77583 16.7658 9.265C16.2758 9.755 15.687 10 14.9995 10Z" fill="white"/>
</g>
</svg>
